<svg width="88" height="88" viewBox="0 0 88 88" fill="none" xmlns="http://www.w3.org/2000/svg">
<path d="M62.1728 0.32563C62.6443 0.231369 63.3559 0.11997 63.7589 0.0856935C64.1618 0.0428477 64.6591 0.00857107 64.8734 1.90735e-06C65.0878 1.90735e-06 65.7394 0.0514169 66.3309 0.11997C66.9225 0.197093 67.8656 0.377045 68.4314 0.522721C68.9973 0.668396 69.8461 0.951179 70.3176 1.16541C70.7891 1.37107 71.4407 1.6967 71.7751 1.89379C72.1095 2.09088 72.6667 2.45935 73.0182 2.72499C73.3698 2.99064 74.0299 3.57334 74.4757 4.01894C74.9216 4.4731 75.5474 5.20148 75.8646 5.64708C76.1904 6.09267 76.662 6.88961 76.9192 7.40376C77.1764 7.92648 77.485 8.63772 77.5965 8.98905C77.7165 9.34039 77.8965 10.0174 77.9994 10.4887C78.128 11.0885 78.1966 11.7655 78.2223 12.7166C78.2566 13.7364 78.2309 14.3191 78.128 14.9875C78.0509 15.4845 77.888 16.2386 77.7765 16.6584C77.6651 17.0783 77.4679 17.6782 77.3393 17.9867C77.2192 18.2952 76.962 18.8522 76.7734 19.2292C76.5848 19.6062 76.2676 20.1632 76.0704 20.4717C75.8646 20.7802 75.4188 21.3801 75.0673 21.7999C74.7158 22.2198 74.0814 22.8625 73.6698 23.2139C73.2583 23.5652 72.641 24.0451 72.3066 24.2679C71.9637 24.4907 71.3636 24.842 70.9606 25.0477C70.5577 25.2533 69.9061 25.5361 69.5031 25.6818C69.1002 25.8189 68.4057 26.016 67.9599 26.1102C67.5141 26.2045 66.6824 26.333 66.1166 26.393C65.5079 26.453 64.7191 26.4701 64.1876 26.4359C63.6903 26.4016 62.9616 26.3159 62.5586 26.2473C62.1557 26.1788 61.4441 25.9988 60.9725 25.8532C60.501 25.7075 59.7294 25.4076 59.2578 25.1933C58.7863 24.9705 58.0918 24.5849 57.7146 24.3278C57.3374 24.0793 56.7372 23.6337 56.3857 23.3424C56.0342 23.051 55.4341 22.4855 55.0568 22.0913C54.6796 21.6885 54.1566 21.0373 53.8823 20.6431C53.6165 20.2404 53.2221 19.5463 52.9906 19.1007C52.7677 18.6551 52.4591 17.9181 52.3047 17.4725C52.159 17.0269 51.9447 16.2557 51.8332 15.7587C51.6532 14.9703 51.6274 14.6361 51.6274 13.1451C51.636 11.714 51.6617 11.2856 51.8161 10.5743C51.9189 10.103 52.1418 9.31468 52.3133 8.81767C52.4848 8.32066 52.8192 7.54943 53.0592 7.10384C53.2907 6.65824 53.7022 5.98128 53.9766 5.60423C54.2423 5.22719 54.8854 4.49881 55.3998 3.97609C55.9142 3.45337 56.6515 2.81069 57.0287 2.54504C57.406 2.2794 58.1176 1.85094 58.6148 1.59387C59.1121 1.32822 59.918 0.976886 60.4152 0.805503C60.9125 0.63412 61.7013 0.419891 62.1728 0.32563Z" fill="#46AD89"/>
<path d="M67.8296 29.8129C68.3011 29.7187 69.1499 29.6073 69.7158 29.5644C70.2816 29.5216 71.1475 29.5045 71.6448 29.5302C72.1421 29.5473 72.9737 29.6244 73.4881 29.693C74.0025 29.7701 74.8598 29.9415 75.3743 30.0872C75.8887 30.2328 76.6088 30.4642 76.9603 30.6013C77.3119 30.7384 77.9892 31.0469 78.4607 31.2868C78.9322 31.5268 79.6438 31.9381 80.0468 32.2037C80.4497 32.4608 81.1013 32.9578 81.5043 33.292C81.9072 33.6262 82.5245 34.2089 82.876 34.586C83.2276 34.963 83.7934 35.6314 84.1278 36.077C84.4707 36.5226 84.9251 37.191 85.148 37.568C85.3795 37.9451 85.7482 38.6392 85.9711 39.1105C86.2025 39.5818 86.5541 40.4901 86.7684 41.1242C86.9742 41.7584 87.2228 42.6838 87.3257 43.1808C87.42 43.6778 87.5229 44.2348 87.54 44.4234C87.5657 44.6119 87.6086 45.0318 87.6343 45.366C87.66 45.7002 87.6943 46.4114 87.7115 46.9513C87.7286 47.594 87.6772 48.3309 87.5743 49.0507C87.4886 49.6591 87.3342 50.5503 87.2399 51.0216C87.1456 51.4929 86.8541 52.4955 86.6055 53.2496C86.3569 54.0037 85.9368 55.1262 85.6624 55.7347C85.3881 56.3431 84.9508 57.2514 84.6936 57.7484C84.4278 58.2454 84.0163 58.9738 83.7677 59.3766C83.5191 59.7793 82.9875 60.5848 82.5674 61.1761C82.1559 61.7673 81.6243 62.4957 81.3843 62.8042C81.1442 63.1127 80.6212 63.7468 80.2183 64.2181C79.8153 64.6894 79.018 65.5721 78.4521 66.189C77.8777 66.7974 76.7975 67.9029 76.0516 68.6312C75.2971 69.3682 74.1054 70.4822 73.3938 71.1163C72.6908 71.7504 71.9963 72.3674 71.8506 72.4874C71.7134 72.6073 70.9846 73.2243 70.2302 73.867C69.4757 74.5011 68.2068 75.5466 67.4009 76.1807C66.595 76.8148 65.5748 77.6032 65.129 77.9374C64.6831 78.2716 63.9287 78.8285 63.4571 79.1713C62.9856 79.5226 61.6739 80.4224 60.5422 81.1851C59.4105 81.9477 58.0559 82.8218 57.5414 83.1303C57.027 83.4387 56.2726 83.8758 55.8696 84.0986C55.4667 84.3299 54.5407 84.8098 53.812 85.1783C53.0832 85.5382 52.1144 85.9924 51.6686 86.1809C51.2228 86.3694 50.4255 86.6608 49.9111 86.8321C49.3967 87.0035 48.505 87.2606 47.9392 87.4063C47.3733 87.5434 46.6102 87.6891 45.65 87.7833V83.3938C45.65 79.5291 45.5899 75.9864 45.65 75.9864C45.6928 75.9864 46.0959 75.8293 46.4217 75.6237C46.7389 75.418 47.159 75.0667 47.3647 74.8525C47.5619 74.6382 47.8106 74.2955 47.9134 74.0898C48.0249 73.8584 48.1106 73.5157 48.1278 73.1301C48.1535 72.7616 48.1192 72.3845 48.0506 72.1446C47.982 71.9304 47.7763 71.5276 47.5962 71.2448C47.4076 70.9621 46.636 70.0966 45.8815 69.3253C45.1271 68.5541 43.8582 67.3202 43.0523 66.5832C42.2464 65.8463 41.4405 65.1093 41.2519 64.9379C41.0632 64.7666 40.0773 63.8582 39.0656 62.9156C38.054 61.973 36.1506 60.1135 34.8475 58.7681C33.5443 57.4314 32.164 55.966 31.7782 55.5204C31.3924 55.0748 30.7065 54.2008 30.2435 53.5924C29.7891 52.9754 29.1461 52.0499 28.8203 51.5358C28.4945 51.0216 27.9544 50.0362 27.6115 49.3506C27.2771 48.6651 26.8656 47.7054 26.6941 47.2083C26.5312 46.7113 26.3169 45.9658 26.214 45.5374C26.1197 45.1089 26.0168 44.6462 25.9911 44.5091C25.9654 44.3634 25.9054 43.8835 25.8539 43.4379C25.7939 42.9323 25.7682 41.9726 25.8025 40.91C25.8368 39.7189 25.9054 38.8963 26.034 38.2107C26.1283 37.6709 26.3255 36.7968 26.4712 36.2827C26.6169 35.7599 26.8141 35.083 26.917 34.7659C27.0199 34.4489 27.1228 34.1832 27.1485 34.1832C27.1742 34.1832 27.2857 34.3289 27.4057 34.5003C27.5257 34.6717 27.9287 35.1258 28.3059 35.5114C28.6832 35.8885 29.2833 36.4112 29.6348 36.6768C29.9863 36.9339 30.5693 37.3281 30.9208 37.5509C31.2723 37.7651 32.0097 38.1507 32.5498 38.4078C33.0899 38.6649 33.9558 39.0077 34.4788 39.179C35.0018 39.3504 35.6877 39.5647 36.022 39.6589C36.3564 39.7532 37.128 39.9246 37.7367 40.0445C38.3455 40.1645 39.2285 40.3016 39.6915 40.353C40.1459 40.3959 41.2433 40.4387 42.1264 40.4387C43.018 40.4473 44.0811 40.4044 44.5098 40.3616C44.9384 40.3102 45.6072 40.2073 46.0101 40.1388C46.4131 40.0617 47.0647 39.9074 47.4676 39.796C47.8706 39.6846 48.565 39.4618 49.0108 39.299C49.4567 39.1362 50.2711 38.7934 50.8113 38.5278C51.3514 38.2707 52.6117 37.5595 53.5976 36.9596C54.5836 36.3598 55.8267 35.6228 56.3412 35.3143C56.8556 35.0144 57.7644 34.4917 58.3559 34.1575C58.9475 33.8233 60.2592 33.0949 61.2709 32.5294C62.2826 31.9724 63.4228 31.3554 63.8001 31.1669C64.1773 30.9784 64.6746 30.747 64.9146 30.6527C65.1461 30.5585 65.712 30.3699 66.1578 30.2328C66.6036 30.0957 67.3581 29.9072 67.8296 29.8129Z" fill="#46AD89"/>
<path d="M51.1552 45.4087L51.9782 44.1742C52.4446 43.4883 53.0482 42.9396 53.2951 42.9396C53.5969 42.9396 53.8438 43.2414 53.981 43.7627C54.0907 44.2839 54.4199 44.6954 54.8589 44.86C55.243 45.0247 56.066 45.1344 56.7245 45.1344C57.4652 45.1618 58.0139 44.9972 58.2883 44.6954C58.5078 44.4485 59.0839 44.0644 59.5229 43.845C59.9618 43.6255 60.538 43.5157 60.7574 43.6255C61.0867 43.7627 61.1141 44.037 60.7574 46.2318L62.0743 46.6433C62.7876 46.8902 64.6532 47.5212 66.2445 48.0425C67.8357 48.5637 69.5367 49.277 70.0579 49.6062C70.5792 49.9355 71.2376 50.5116 71.512 50.8957C71.7863 51.2798 72.0333 51.8559 72.0058 52.2125C72.0058 52.5418 71.8138 53.2276 71.5669 53.7215C71.32 54.1878 70.7712 54.9011 70.3323 55.2852C69.7013 55.8065 69.4818 56.3278 69.2898 57.48C69.1526 58.303 68.7959 59.6199 68.4667 60.3607C68.1649 61.1288 67.5888 62.0342 67.1773 62.4183C66.7932 62.8023 65.8329 63.3236 65.0373 63.5705C63.885 63.9272 63.4735 64.2564 62.7602 65.3538C62.2664 66.0671 61.3336 67.3291 60.7026 68.1247C60.0441 68.9203 59.3583 69.9079 59.1388 70.3194C58.7821 71.0053 58.7272 71.0328 58.5352 70.5115C58.4255 70.2097 58.2608 69.7433 58.1785 69.4964C58.0688 69.1946 57.7396 69.0026 57.2732 69.0026C56.8342 69.0026 56.313 68.8654 56.0935 68.7282C55.7643 68.4813 55.9014 68.2344 56.944 67.2742C57.9316 66.3963 58.2608 65.8476 58.4255 65.0246C58.5901 63.9272 58.5901 63.9272 57.2183 63.1864C55.8191 62.4183 55.8191 62.4183 55.874 61.1288C55.9014 60.2783 55.6819 59.2633 55.243 58.2482C54.6394 56.7941 54.5297 56.657 53.7066 56.657C53.2128 56.657 52.472 56.4924 52.088 56.3278C51.6764 56.1083 51.0729 55.395 50.7162 54.6817C50.1126 53.4745 50.0303 53.3922 49.5914 53.7763C49.317 53.9958 48.7134 54.1604 48.2745 54.1604C47.8355 54.1604 47.2045 53.9958 46.9027 53.7763C46.6009 53.5294 46.1071 53.3648 45.8053 53.3648C45.5035 53.3648 45.0371 53.1453 44.7628 52.871C44.4884 52.6241 44.2964 52.1028 44.2964 51.7187C44.2964 51.3346 44.4884 50.8134 44.7353 50.539C44.9548 50.2647 45.4761 49.9355 45.8876 49.8257C46.4089 49.6886 46.8204 49.277 47.2319 48.4266C47.8081 47.192 47.8081 47.192 47.2868 46.3141C46.9027 45.6282 46.8479 45.3539 47.0948 45.2167C47.2868 45.1344 48.2745 45.1344 51.1552 45.4087Z" fill="#FDDB3C"/>
<path d="M17.5464 0.899922C18.0865 0.779953 18.841 0.651416 19.2182 0.600001C19.5955 0.557155 20.4785 0.522879 21.1901 0.522879C21.8932 0.522879 22.8791 0.574294 23.3764 0.642847C23.8736 0.7114 24.6967 0.865645 25.2197 0.985613C25.7426 1.10558 26.6857 1.4055 27.3202 1.63687C27.9546 1.87681 28.7434 2.20243 29.0777 2.36525C29.4121 2.53663 29.9436 2.82798 30.278 3.0165C30.6124 3.20503 31.2297 3.59064 31.6498 3.87342C32.0699 4.1562 32.8243 4.72177 33.3216 5.12452C33.8103 5.52727 34.5819 6.2128 35.0277 6.63269C35.4735 7.06115 36.2451 7.86665 36.7424 8.44078C37.2397 9.00635 38.0198 9.94895 38.4657 10.5231C38.9115 11.1058 40.1804 12.8368 41.2863 14.3706C42.3923 15.9131 43.7212 17.7726 44.2442 18.501C44.7235 19.1797 45.6794 20.5505 46.4457 21.6494L46.6105 21.8858C47.3906 23.0169 48.248 24.268 48.5052 24.6708C48.771 25.0735 49.0539 25.5277 49.1311 25.6734C49.2082 25.8276 49.2511 26.0333 49.2254 26.1275C49.1996 26.2218 49.0796 26.3675 48.9424 26.4446C48.7881 26.5388 48.6081 26.5731 48.4109 26.5388C48.248 26.5131 47.5878 26.2646 46.9534 25.9818C46.319 25.6991 45.1101 25.2106 44.2699 24.8936C43.4383 24.5851 42.2809 24.1909 41.6979 24.0366C41.1234 23.8738 40.3004 23.6596 39.8803 23.5653C39.4602 23.4711 38.9886 23.3768 38.8515 23.3511C38.7143 23.3254 38.2685 23.2654 37.8655 23.214C37.4626 23.154 36.6738 23.1198 36.108 23.1198C35.5421 23.1198 34.7705 23.1626 34.3933 23.214C34.016 23.2654 33.3559 23.3854 32.9358 23.4797C32.5157 23.5825 31.7612 23.8053 31.264 23.9852C30.7667 24.1566 30.0722 24.448 29.7207 24.6279C29.3692 24.8079 28.7691 25.1421 28.3918 25.382C28.0146 25.6134 27.4402 26.0247 27.1144 26.2903C26.7886 26.556 26.2656 27.0187 25.957 27.3272C25.6483 27.6357 25.1339 28.2184 24.8253 28.6126C24.5081 29.0153 24.088 29.6066 23.8736 29.9408C23.6593 30.275 23.2735 30.9434 23.0077 31.4404C22.7419 31.9374 22.3218 32.8629 22.0646 33.497C21.8074 34.1311 21.4988 34.9795 21.3787 35.3822C21.2587 35.785 21.0958 36.3591 21.0187 36.6676C20.9415 36.9761 20.8215 37.5502 20.7529 37.953C20.6929 38.3557 20.6157 38.9298 20.59 39.2383C20.5557 39.5468 20.53 40.5323 20.53 41.4235C20.53 42.3147 20.5728 43.4029 20.6157 43.8228C20.6671 44.2513 20.7615 44.9197 20.8386 45.3224C20.9072 45.7252 21.1044 46.5136 21.2673 47.0791C21.4216 47.6447 21.7045 48.493 21.876 48.9643C22.0475 49.4356 22.4333 50.3268 22.7248 50.9352C23.0163 51.5436 23.5393 52.5291 23.8908 53.1204C24.2337 53.7116 24.8081 54.62 25.1596 55.1341C25.5112 55.6483 26.1542 56.5395 26.5828 57.105C27.0115 57.6706 27.7317 58.5789 28.1861 59.1188C28.6405 59.6586 29.3864 60.5327 29.8493 61.0468C30.3037 61.561 32.2328 63.5319 34.1275 65.4171C36.0137 67.3023 38.2428 69.4618 39.0658 70.2158C39.8889 70.9699 40.9348 71.9125 41.3892 72.3153C41.835 72.718 42.6324 73.4121 43.1468 73.8577C43.6698 74.3033 44.4328 74.9574 45.6502 75.9857L45.6674 81.8699C45.6674 87.0285 45.6502 87.7826 45.6502 87.7826C45.5816 87.7826 44.8186 87.4399 44.0984 87.0628C43.3868 86.6943 42.2894 86.0945 41.6807 85.726C41.072 85.3575 39.966 84.6634 39.2373 84.1836C38.5085 83.7037 37.1968 82.8039 36.3223 82.1784C35.4478 81.5443 34.0418 80.4903 33.193 79.8304C32.3442 79.162 31.1868 78.2366 30.6209 77.7653C30.0551 77.294 28.9405 76.3257 28.1346 75.623C27.3287 74.9117 26.1542 73.8492 25.5197 73.2579C24.8853 72.6666 23.8822 71.724 23.2906 71.167C22.6991 70.6015 21.0787 68.999 19.6898 67.6108C18.3009 66.214 16.6548 64.5174 16.046 63.8318C15.4288 63.1463 14.7343 62.3579 14.4943 62.0751C14.2542 61.7924 13.7484 61.1754 13.3711 60.7041C13.0025 60.2328 12.2737 59.2902 11.7593 58.6046C11.2535 57.9191 10.3018 56.5737 9.65882 55.6054C9.01581 54.6371 8.03843 53.0947 7.4983 52.1778C6.95817 51.2609 6.20371 49.9069 5.8179 49.1786C5.44067 48.4502 4.89197 47.3276 4.60047 46.6935C4.30897 46.0594 3.81171 44.9026 3.51164 44.1228C3.20299 43.343 2.70573 41.9719 2.40566 41.0807C2.09702 40.1895 1.70264 38.9298 1.51402 38.2957C1.33398 37.6616 1.05105 36.5219 0.888158 35.7678C0.725262 35.0137 0.528072 34.0111 0.450911 33.5398C0.37375 33.0685 0.288015 32.4687 0.262295 32.2116C0.245148 31.9545 0.185134 31.4918 0.133693 31.1833C0.0822521 30.8748 0.0565317 30.5921 0.0651052 30.5406C0.0822521 30.4892 0.0565317 29.7009 0.0222379 28.784C-0.0206295 27.5757 -0.00348255 26.5131 0.0908256 24.9707C0.167987 23.7967 0.288015 22.4428 0.356603 21.9715C0.425191 21.5002 0.622381 20.5147 0.785277 19.7863C0.948172 19.058 1.2311 17.9611 1.41971 17.3441C1.59976 16.7272 1.93412 15.7503 2.15703 15.159C2.37994 14.5677 2.86006 13.488 3.22014 12.7596C3.5888 12.0313 4.12893 11.0372 4.43757 10.5488C4.73765 10.0604 5.27777 9.27199 5.63786 8.79212C5.99794 8.31224 6.63238 7.53245 7.05248 7.06972C7.47258 6.59841 8.12417 5.94716 8.5014 5.61296C8.8872 5.27876 9.35017 4.87601 9.53021 4.72177C9.71883 4.56752 10.1989 4.21619 10.6019 3.94197C11.0048 3.66776 11.7164 3.22216 12.188 2.94795C12.6595 2.68231 13.4483 2.28813 13.9455 2.0739C14.4428 1.85967 15.2316 1.55975 15.7031 1.4055C16.1747 1.25126 17.0063 1.02846 17.5464 0.899922Z" fill="#46AD89"/>
</svg>
